<?xml version="1.0" encoding="UTF-8" standalone="no"?><svg xmlns="http://www.w3.org/2000/svg" xmlns:xlink="http://www.w3.org/1999/xlink" fill="#000000" height="201.7" preserveAspectRatio="xMidYMid meet" version="1" viewBox="47.7 111.7 329.7 201.7" width="329.7" zoomAndPan="magnify"><g><g id="change1_1"><path d="M 377.265625 257.863281 C 376.71875 243.140625 368.539062 229.773438 355.105469 219.910156 C 348.898438 215.359375 341.574219 211.554688 333.359375 208.714844 C 345.378906 198.644531 353.027344 183.53125 353.027344 166.621094 C 353.027344 136.308594 328.453125 111.730469 298.140625 111.730469 C 267.824219 111.730469 243.25 136.308594 243.25 166.621094 C 243.25 183.53125 250.902344 198.644531 262.921875 208.714844 C 254.703125 211.554688 247.386719 215.359375 241.183594 219.910156 C 227.75 229.769531 219.582031 243.140625 219.015625 257.863281 C 218.816406 263.03125 219.386719 267.382812 220.589844 271.089844 C 241.121094 276.164062 268.3125 279.253906 298.140625 279.253906 C 328.042969 279.253906 355.292969 276.148438 375.84375 271.054688 C 376.945312 267.351562 377.457031 263.007812 377.265625 257.863281" fill="#a6a6a6"/></g><g id="change1_2"><path d="M 206.183594 257.863281 C 205.636719 243.140625 197.460938 229.773438 184.019531 219.910156 C 177.816406 215.359375 170.492188 211.554688 162.277344 208.714844 C 174.296875 198.644531 181.945312 183.53125 181.945312 166.621094 C 181.945312 136.308594 157.371094 111.730469 127.058594 111.730469 C 96.742188 111.730469 72.167969 136.308594 72.167969 166.621094 C 72.167969 183.53125 79.820312 198.644531 91.839844 208.714844 C 83.621094 211.554688 76.304688 215.359375 70.101562 219.910156 C 56.667969 229.769531 48.496094 243.140625 47.933594 257.863281 C 47.734375 263.03125 48.304688 267.382812 49.507812 271.089844 C 70.039062 276.164062 97.230469 279.253906 127.058594 279.253906 C 156.960938 279.253906 184.210938 276.148438 204.761719 271.054688 C 205.863281 267.351562 206.375 263.007812 206.183594 257.863281" fill="#a6a6a6"/></g><g id="change2_1"><path d="M 296.714844 290.734375 C 296.132812 275.082031 287.4375 260.867188 273.152344 250.386719 C 266.558594 245.546875 258.773438 241.503906 250.039062 238.480469 C 262.816406 227.78125 270.945312 211.714844 270.945312 193.738281 C 270.945312 161.515625 244.824219 135.390625 212.601562 135.390625 C 180.371094 135.390625 154.25 161.515625 154.25 193.738281 C 154.25 211.714844 162.382812 227.78125 175.160156 238.484375 C 166.425781 241.503906 158.644531 245.546875 152.054688 250.386719 C 137.773438 260.867188 129.085938 275.082031 128.484375 290.734375 C 128.277344 296.226562 128.882812 300.855469 130.160156 304.789062 C 151.988281 310.1875 180.890625 313.46875 212.601562 313.46875 C 244.386719 313.46875 273.355469 310.167969 295.199219 304.753906 C 296.371094 300.8125 296.914062 296.199219 296.714844 290.734375" fill="#d9d9d9"/></g></g></svg>